<svg xmlns="http://www.w3.org/2000/svg" version="1.1" xmlns:xlink="http://www.w3.org/1999/xlink" xmlns:svgjs="http://svgjs.com/svgjs" width="1440" height="560" preserveAspectRatio="none" viewBox="0 0 1440 560"><g mask="url(&quot;#SvgjsMask2427&quot;)" fill="none"><rect width="1440" height="560" x="0" y="0" fill="#1e3266"></rect><path d="M1464 560L0 560 L0 322.68Q86.25 288.93, 120 375.18Q170.07 305.25, 240 355.33Q219.32 262.65, 312 241.98Q342.71 200.69, 384 231.4Q487.35 214.75, 504 318.1Q531.29 225.39, 624 252.68Q678.79 187.47, 744 242.26Q843.63 221.88, 864 321.51Q888.46 273.97, 936 298.43Q945.84 236.27, 1008 246.11Q1057.74 175.85, 1128 225.58Q1229.87 207.45, 1248 309.32Q1253.4 242.72, 1320 248.12Q1342.11 198.23, 1392 220.34Q1433.29 189.63, 1464 230.91z" fill="rgba(233, 235, 251, 1)"></path><path d="M1560 560L0 560 L0 404.25Q43.22 327.47, 120 370.69Q202.42 333.11, 240 415.52Q264.1 367.62, 312 391.72Q391.19 350.91, 432 430.1Q495.17 421.27, 504 484.44Q505.36 413.8, 576 415.16Q590.56 357.72, 648 372.28Q715.36 319.64, 768 387Q811 358, 840 401Q919.85 360.85, 960 440.7Q967.74 328.44, 1080 336.17Q1148.06 284.23, 1200 352.29Q1324.89 357.19, 1320 482.08Q1307.42 349.5, 1440 336.93Q1559.87 336.8, 1560 456.67z" fill="rgba(255, 255, 255, 1)"></path><path d="M1488 560L0 560 L0 591.81Q-26.14 493.67, 72 467.53Q100.05 423.57, 144 451.62Q221.6 409.22, 264 486.82Q346.81 449.63, 384 532.44Q389.38 465.82, 456 471.2Q510.45 405.65, 576 460.1Q627.83 439.93, 648 491.76Q701.58 473.33, 720 526.91Q798.7 485.61, 840 564.3Q892.99 545.28, 912 598.27Q937.47 503.74, 1032 529.2Q1057.42 482.62, 1104 508.04Q1159.63 491.67, 1176 547.31Q1192.5 443.81, 1296 460.31Q1369.82 414.13, 1416 487.95Q1509.74 509.69, 1488 603.43z" fill="rgba(53, 108, 177, 1)"></path></g><defs><mask id="SvgjsMask2427"><rect width="1440" height="560" fill="#ffffff"></rect></mask></defs></svg>